<?xml version="1.0" encoding="UTF-8" standalone="no"?>
<!-- Created with Inkscape (http://www.inkscape.org/) -->

<svg
   width="166.21069mm"
   height="154.34029mm"
   viewBox="0 0 166.21069 154.34029"
   version="1.1"
   id="svg5"
   inkscape:version="1.1 (c68e22c387, 2021-05-23)"
   xmlns:inkscape="http://www.inkscape.org/namespaces/inkscape"
   xmlns:sodipodi="http://sodipodi.sourceforge.net/DTD/sodipodi-0.dtd"
   xmlns="http://www.w3.org/2000/svg"
   xmlns:svg="http://www.w3.org/2000/svg">
  <sodipodi:namedview
     id="namedview7"
     pagecolor="#ffffff"
     bordercolor="#666666"
     borderopacity="1.0"
     inkscape:pageshadow="2"
     inkscape:pageopacity="0.0"
     inkscape:pagecheckerboard="0"
     inkscape:document-units="mm"
     showgrid="false"
     fit-margin-top="0"
     fit-margin-left="0"
     fit-margin-right="0"
     fit-margin-bottom="0"
     inkscape:zoom="1.1794285"
     inkscape:cx="314.13519"
     inkscape:cy="291.66668"
     inkscape:window-width="1500"
     inkscape:window-height="938"
     inkscape:window-x="-6"
     inkscape:window-y="-6"
     inkscape:window-maximized="1"
     inkscape:current-layer="layer1" />
  <defs
     id="defs2" />
  <g
     inkscape:label="Layer 1"
     inkscape:groupmode="layer"
     id="layer1"
     transform="translate(-17.289016,-62.963663)">
    <path
       style="fill:#9457b0;fill-opacity:1;stroke:#000000;stroke-width:4.80000006;stroke-opacity:1;stroke-miterlimit:4;stroke-dasharray:none"
       d="m 510.84063,315.40699 v -13.98982 h 13.07261 c 7.18994,0 13.67613,0.23159 14.41376,0.51464 1.14511,0.43942 1.34115,2.48438 1.34115,13.98983 v 13.47518 h -14.41376 -14.41376 z"
       id="path3337"
       transform="matrix(0.26458333,0,0,0.26458333,17.289016,62.963663)" />
    <path
       style="fill:#ca3a33;fill-opacity:1;stroke:#000000;stroke-width:4.80000006;stroke-opacity:1;stroke-miterlimit:4;stroke-dasharray:none"
       d="M 1.2718024,434.95642 V 420.96659 H 15.261629 29.251455 v 13.98983 13.98983 H 15.261629 1.2718024 Z"
       id="path7964"
       transform="matrix(0.26458333,0,0,0.26458333,17.289016,62.963663)" />
    <path
       style="fill:#ca3a33;fill-opacity:1;stroke:#000000;stroke-width:4.80000006;stroke-opacity:1;stroke-miterlimit:4;stroke-dasharray:none"
       d="m 30.947192,375.18171 v -14.41376 h 13.989826 13.989826 v 14.41376 14.41376 H 44.937018 30.947192 Z"
       id="path8042"
       transform="matrix(0.26458333,0,0,0.26458333,17.289016,62.963663)" />
    <path
       style="fill:#ca3a33;fill-opacity:1;stroke:#000000;stroke-width:4.80000006;stroke-opacity:1;stroke-miterlimit:4;stroke-dasharray:none"
       d="m 91.145838,315.40699 v -13.98982 h 13.989822 13.98983 v 13.98982 13.98983 H 105.13566 91.145838 Z"
       id="path8159"
       transform="matrix(0.26458333,0,0,0.26458333,17.289016,62.963663)" />
    <path
       style="fill:#389723;fill-opacity:1;stroke:#000000;stroke-width:4.80000006;stroke-opacity:1;stroke-miterlimit:4;stroke-dasharray:none"
       d="M 301.41717,15.261629 V 1.2718024 h 13.98982 13.98983 V 15.261629 29.251455 h -13.98983 -13.98982 z"
       id="path10343"
       transform="matrix(0.26458333,0,0,0.26458333,17.289016,62.963663)" />
    <path
       style="fill:#389723;fill-opacity:1;stroke:#000000;stroke-width:4.80000006;stroke-opacity:1;stroke-miterlimit:4;stroke-dasharray:none"
       d="m 360.76795,255.20835 v -13.98983 h 14.41376 14.41376 v 13.98983 13.98982 h -14.41376 -14.41376 z"
       id="path10811"
       transform="matrix(0.26458333,0,0,0.26458333,17.289016,62.963663)" />
    <path
       style="fill:#389723;fill-opacity:1;stroke:#000000;stroke-width:4.80000006;stroke-opacity:1;stroke-miterlimit:4;stroke-dasharray:none"
       d="m 181.58512,208.43428 c -0.31089,-0.31088 -0.56525,-6.60631 -0.56525,-13.98983 v -13.42458 h 13.98983 13.98983 v 13.98983 13.98983 h -13.42458 c -7.38352,0 -13.67895,-0.25436 -13.98983,-0.56525 z"
       id="path11123"
       transform="matrix(0.26458333,0,0,0.26458333,17.289016,62.963663)" />
    <path
       style="fill:#389723;fill-opacity:1;stroke:#000000;stroke-width:4.80000006;stroke-opacity:1;stroke-miterlimit:4;stroke-dasharray:none"
       d="m 270.89391,165.33431 v -13.98982 h 14.41376 14.41376 v 13.98982 13.98983 h -14.41376 -14.41376 z"
       id="path11753"
       transform="matrix(0.26458333,0,0,0.26458333,17.289016,62.963663)" />
    <path
       style="fill:#389723;fill-opacity:1;stroke:#000000;stroke-width:4.80000006;stroke-opacity:1;stroke-miterlimit:4;stroke-dasharray:none"
       d="m 301.41717,165.33431 v -13.98982 h 13.98982 13.98983 v 13.98982 13.98983 h -13.98983 -13.98982 z"
       id="path11792"
       transform="matrix(0.26458333,0,0,0.26458333,17.289016,62.963663)" />
    <path
       style="fill:#389723;fill-opacity:1;stroke:#000000;stroke-width:4.80000006;stroke-opacity:1;stroke-miterlimit:4;stroke-dasharray:none"
       d="m 331.09256,165.33431 v -13.98982 h 13.98982 13.98983 v 13.98982 13.98983 h -13.98983 -13.98982 z"
       id="path11831"
       transform="matrix(0.26458333,0,0,0.26458333,17.289016,62.963663)" />
    <path
       style="fill:#389723;fill-opacity:1;stroke:#000000;stroke-width:4.80000006;stroke-opacity:1;stroke-miterlimit:4;stroke-dasharray:none"
       d="m 360.76795,165.33431 v -13.98982 h 14.41376 14.41376 v 13.98982 13.98983 h -14.41376 -14.41376 z"
       id="path11870"
       transform="matrix(0.26458333,0,0,0.26458333,17.289016,62.963663)" />
    <path
       style="fill:#389723;fill-opacity:1;stroke:#000000;stroke-width:4.80000006;stroke-opacity:1;stroke-miterlimit:4;stroke-dasharray:none"
       d="m 391.2912,165.33431 v -13.98982 h 13.98983 13.98983 v 13.98982 13.98983 H 405.28103 391.2912 Z"
       id="path11909"
       transform="matrix(0.26458333,0,0,0.26458333,17.289016,62.963663)" />
    <path
       style="fill:#389723;fill-opacity:1;stroke:#000000;stroke-width:4.80000006;stroke-opacity:1;stroke-miterlimit:4;stroke-dasharray:none"
       d="m 391.2912,135.23499 v -14.41376 h 13.98983 13.98983 v 14.41376 14.41376 H 405.28103 391.2912 Z"
       id="path11948"
       transform="matrix(0.26458333,0,0,0.26458333,17.289016,62.963663)" />
    <path
       style="fill:#389723;fill-opacity:1;stroke:#000000;stroke-width:4.80000006;stroke-opacity:1;stroke-miterlimit:4;stroke-dasharray:none"
       d="m 360.76795,135.23499 v -14.41376 h 14.41376 14.41376 v 14.41376 14.41376 h -14.41376 -14.41376 z"
       id="path11987"
       transform="matrix(0.26458333,0,0,0.26458333,17.289016,62.963663)" />
    <path
       style="fill:#389723;fill-opacity:1;stroke:#000000;stroke-width:4.80000006;stroke-opacity:1;stroke-miterlimit:4;stroke-dasharray:none"
       d="m 331.09256,135.23499 v -14.41376 h 13.98982 13.98983 v 14.41376 14.41376 h -13.98983 -13.98982 z"
       id="path12026"
       transform="matrix(0.26458333,0,0,0.26458333,17.289016,62.963663)" />
    <path
       style="fill:#389723;fill-opacity:1;stroke:#000000;stroke-width:4.80000006;stroke-opacity:1;stroke-miterlimit:4;stroke-dasharray:none"
       d="m 301.41717,135.23499 v -14.41376 h 13.98982 13.98983 v 14.41376 14.41376 h -13.98983 -13.98982 z"
       id="path12065"
       transform="matrix(0.26458333,0,0,0.26458333,17.289016,62.963663)" />
    <path
       style="fill:#389723;fill-opacity:1;stroke:#000000;stroke-width:4.80000006;stroke-opacity:1;stroke-miterlimit:4;stroke-dasharray:none"
       d="m 270.89391,135.23499 v -14.41376 h 14.41376 14.41376 v 14.41376 14.41376 h -14.41376 -14.41376 z"
       id="path12104"
       transform="matrix(0.26458333,0,0,0.26458333,17.289016,62.963663)" />
    <path
       style="fill:#389723;fill-opacity:1;stroke:#000000;stroke-width:4.80000006;stroke-opacity:1;stroke-miterlimit:4;stroke-dasharray:none"
       d="m 241.21852,135.23499 v -14.41376 h 13.98983 13.98982 v 14.41376 14.41376 h -13.98982 -13.98983 z"
       id="path12143"
       transform="matrix(0.26458333,0,0,0.26458333,17.289016,62.963663)" />
    <path
       style="fill:#389723;fill-opacity:1;stroke:#000000;stroke-width:4.80000006;stroke-opacity:1;stroke-miterlimit:4;stroke-dasharray:none"
       d="M 241.21852,44.937018 V 30.947192 h 13.98983 13.98982 v 13.989826 13.989826 h -13.98982 -13.98983 z"
       id="path12338"
       transform="matrix(0.26458333,0,0,0.26458333,17.289016,62.963663)" />
    <path
       style="fill:#389723;fill-opacity:1;stroke:#000000;stroke-width:4.80000006;stroke-opacity:1;stroke-miterlimit:4;stroke-dasharray:none"
       d="M 270.89391,44.937018 V 30.947192 h 14.41376 14.41376 v 13.989826 13.989826 h -14.41376 -14.41376 z"
       id="path12377"
       transform="matrix(0.26458333,0,0,0.26458333,17.289016,62.963663)" />
    <path
       style="fill:#389723;fill-opacity:1;stroke:#000000;stroke-width:4.80000006;stroke-opacity:1;stroke-miterlimit:4;stroke-dasharray:none"
       d="M 301.41717,44.937018 V 30.947192 h 13.98982 13.98983 v 13.989826 13.989826 h -13.98983 -13.98982 z"
       id="path12416"
       transform="matrix(0.26458333,0,0,0.26458333,17.289016,62.963663)" />
    <path
       style="fill:#389723;fill-opacity:1;stroke:#000000;stroke-width:4.80000006;stroke-opacity:1;stroke-miterlimit:4;stroke-dasharray:none"
       d="M 331.09256,44.937018 V 30.947192 h 13.98982 13.98983 v 13.989826 13.989826 h -13.98983 -13.98982 z"
       id="path12455"
       transform="matrix(0.26458333,0,0,0.26458333,17.289016,62.963663)" />
    <path
       style="fill:#389723;fill-opacity:1;stroke:#000000;stroke-width:4.80000006;stroke-opacity:1;stroke-miterlimit:4;stroke-dasharray:none"
       d="M 360.76795,44.937018 V 30.947192 h 14.41376 14.41376 v 13.989826 13.989826 h -14.41376 -14.41376 z"
       id="path12494"
       transform="matrix(0.26458333,0,0,0.26458333,17.289016,62.963663)" />
    <path
       style="fill:#389723;fill-opacity:1;stroke:#000000;stroke-width:4.80000006;stroke-opacity:1;stroke-miterlimit:4;stroke-dasharray:none"
       d="M 391.2912,75.460275 V 61.470449 h 13.98983 13.98983 V 75.460275 89.450102 H 405.28103 391.2912 Z"
       id="path12572"
       transform="matrix(0.26458333,0,0,0.26458333,17.289016,62.963663)" />
    <path
       style="fill:#389723;fill-opacity:1;stroke:#000000;stroke-width:4.80000006;stroke-opacity:1;stroke-miterlimit:4;stroke-dasharray:none"
       d="M 360.76795,75.460275 V 61.470449 h 14.41376 14.41376 v 13.989826 13.989827 h -14.41376 -14.41376 z"
       id="path12611"
       transform="matrix(0.26458333,0,0,0.26458333,17.289016,62.963663)" />
    <path
       style="fill:#389723;fill-opacity:1;stroke:#000000;stroke-width:4.80000006;stroke-opacity:1;stroke-miterlimit:4;stroke-dasharray:none"
       d="M 331.09256,75.460275 V 61.470449 h 13.98982 13.98983 v 13.989826 13.989827 h -13.98983 -13.98982 z"
       id="path12650"
       transform="matrix(0.26458333,0,0,0.26458333,17.289016,62.963663)" />
    <path
       style="fill:#389723;fill-opacity:1;stroke:#000000;stroke-width:4.80000006;stroke-opacity:1;stroke-miterlimit:4;stroke-dasharray:none"
       d="M 301.41717,75.460275 V 61.470449 h 13.98982 13.98983 v 13.989826 13.989827 h -13.98983 -13.98982 z"
       id="path12689"
       transform="matrix(0.26458333,0,0,0.26458333,17.289016,62.963663)" />
    <path
       style="fill:#389723;fill-opacity:1;stroke:#000000;stroke-width:4.80000006;stroke-opacity:1;stroke-miterlimit:4;stroke-dasharray:none"
       d="M 270.89391,75.460275 V 61.470449 h 14.41376 14.41376 v 13.989826 13.989827 h -14.41376 -14.41376 z"
       id="path12728"
       transform="matrix(0.26458333,0,0,0.26458333,17.289016,62.963663)" />
    <path
       style="fill:#389723;fill-opacity:1;stroke:#000000;stroke-width:4.80000006;stroke-opacity:1;stroke-miterlimit:4;stroke-dasharray:none"
       d="M 241.21852,75.460275 V 61.470449 h 13.98983 13.98982 v 13.989826 13.989827 h -13.98982 -13.98983 z"
       id="path12767"
       transform="matrix(0.26458333,0,0,0.26458333,17.289016,62.963663)" />
    <path
       style="fill:#389723;fill-opacity:1;stroke:#000000;stroke-width:4.80000006;stroke-opacity:1;stroke-miterlimit:4;stroke-dasharray:none"
       d="M 211.54313,75.460275 V 61.470449 h 13.98983 13.98982 v 13.989826 13.989827 h -13.98982 -13.98983 z"
       id="path12806"
       transform="matrix(0.26458333,0,0,0.26458333,17.289016,62.963663)" />
    <path
       style="fill:#389723;fill-opacity:1;stroke:#000000;stroke-width:4.80000006;stroke-opacity:1;stroke-miterlimit:4;stroke-dasharray:none"
       d="M 181.01987,105.13566 V 91.145838 h 13.98983 13.98983 v 13.989822 13.98983 H 195.0097 181.01987 Z"
       id="path12845"
       transform="matrix(0.26458333,0,0,0.26458333,17.289016,62.963663)" />
    <path
       style="fill:#389723;fill-opacity:1;stroke:#000000;stroke-width:4.80000006;stroke-opacity:1;stroke-miterlimit:4;stroke-dasharray:none"
       d="M 211.54313,105.13566 V 91.145838 h 13.98983 13.98982 v 13.989822 13.98983 h -13.98982 -13.98983 z"
       id="path12884"
       transform="matrix(0.26458333,0,0,0.26458333,17.289016,62.963663)" />
    <path
       style="fill:#389723;fill-opacity:1;stroke:#000000;stroke-width:4.80000006;stroke-opacity:1;stroke-miterlimit:4;stroke-dasharray:none"
       d="M 241.21852,105.13566 V 91.145838 h 13.98983 13.98982 v 13.989822 13.98983 h -13.98982 -13.98983 z"
       id="path12923"
       transform="matrix(0.26458333,0,0,0.26458333,17.289016,62.963663)" />
    <path
       style="fill:#389723;fill-opacity:1;stroke:#000000;stroke-width:4.80000006;stroke-opacity:1;stroke-miterlimit:4;stroke-dasharray:none"
       d="M 270.89391,105.13566 V 91.145838 h 14.41376 14.41376 v 13.989822 13.98983 h -14.41376 -14.41376 z"
       id="path13001"
       transform="matrix(0.26458333,0,0,0.26458333,17.289016,62.963663)" />
    <path
       style="fill:#389723;fill-opacity:1;stroke:#000000;stroke-width:4.80000006;stroke-opacity:1;stroke-miterlimit:4;stroke-dasharray:none"
       d="M 301.41717,105.13566 V 91.145838 h 13.98982 13.98983 v 13.989822 13.98983 h -13.98983 -13.98982 z"
       id="path13040"
       transform="matrix(0.26458333,0,0,0.26458333,17.289016,62.963663)" />
    <path
       style="fill:#389723;fill-opacity:1;stroke:#000000;stroke-width:4.80000006;stroke-opacity:1;stroke-miterlimit:4;stroke-dasharray:none"
       d="M 331.09256,105.13566 V 91.145838 h 13.98982 13.98983 v 13.989822 13.98983 h -13.98983 -13.98982 z"
       id="path13079"
       transform="matrix(0.26458333,0,0,0.26458333,17.289016,62.963663)" />
    <path
       style="fill:#389723;fill-opacity:1;stroke:#000000;stroke-width:4.80000006;stroke-opacity:1;stroke-miterlimit:4;stroke-dasharray:none"
       d="M 360.76795,105.13566 V 91.145838 h 14.41376 14.41376 v 13.989822 13.98983 h -14.41376 -14.41376 z"
       id="path13118"
       transform="matrix(0.26458333,0,0,0.26458333,17.289016,62.963663)" />
    <path
       style="fill:#389723;fill-opacity:1;stroke:#000000;stroke-width:4.80000006;stroke-opacity:1;stroke-miterlimit:4;stroke-dasharray:none"
       d="M 391.2912,105.13566 V 91.145838 h 13.98983 13.98983 v 13.989822 13.98983 H 405.28103 391.2912 Z"
       id="path13157"
       transform="matrix(0.26458333,0,0,0.26458333,17.289016,62.963663)" />
    <path
       style="fill:#389723;fill-opacity:1;stroke:#000000;stroke-width:4.80000006;stroke-opacity:1;stroke-miterlimit:4;stroke-dasharray:none"
       d="M 420.96659,105.13566 V 91.145838 h 13.98983 13.98983 v 13.989822 13.98983 h -13.98983 -13.98983 z"
       id="path13196"
       transform="matrix(0.26458333,0,0,0.26458333,17.289016,62.963663)" />
    <path
       style="fill:#389723;fill-opacity:1;stroke:#000000;stroke-width:4.80000006;stroke-opacity:1;stroke-miterlimit:4;stroke-dasharray:none"
       d="m 420.96659,135.23499 v -14.41376 h 13.98983 13.98983 v 14.41376 14.41376 h -13.98983 -13.98983 z"
       id="path13235"
       transform="matrix(0.26458333,0,0,0.26458333,17.289016,62.963663)" />
    <path
       style="fill:#389723;fill-opacity:1;stroke:#000000;stroke-width:4.80000006;stroke-opacity:1;stroke-miterlimit:4;stroke-dasharray:none"
       d="m 420.96659,165.33431 v -13.98982 h 13.98983 13.98983 v 13.98982 13.98983 h -13.98983 -13.98983 z"
       id="path13274"
       transform="matrix(0.26458333,0,0,0.26458333,17.289016,62.963663)" />
    <path
       style="fill:#389723;fill-opacity:1;stroke:#000000;stroke-width:4.80000006;stroke-opacity:1;stroke-miterlimit:4;stroke-dasharray:none"
       d="m 391.2912,195.0097 v -13.98983 h 13.98983 13.98983 v 13.98983 13.98983 H 405.28103 391.2912 Z"
       id="path13313"
       transform="matrix(0.26458333,0,0,0.26458333,17.289016,62.963663)" />
    <path
       style="fill:#389723;fill-opacity:1;stroke:#000000;stroke-width:4.80000006;stroke-opacity:1;stroke-miterlimit:4;stroke-dasharray:none"
       d="m 360.76795,195.0097 v -13.98983 h 14.41376 14.41376 v 13.98983 13.98983 h -14.41376 -14.41376 z"
       id="path13352"
       transform="matrix(0.26458333,0,0,0.26458333,17.289016,62.963663)" />
    <path
       style="fill:#389723;fill-opacity:1;stroke:#000000;stroke-width:4.80000006;stroke-opacity:1;stroke-miterlimit:4;stroke-dasharray:none"
       d="m 360.76795,225.53296 v -13.98983 h 14.41376 14.41376 v 13.98983 13.98982 h -14.41376 -14.41376 z"
       id="path13391"
       transform="matrix(0.26458333,0,0,0.26458333,17.289016,62.963663)" />
    <path
       style="fill:#389723;fill-opacity:1;stroke:#000000;stroke-width:4.80000006;stroke-opacity:1;stroke-miterlimit:4;stroke-dasharray:none"
       d="m 391.2912,225.53296 v -13.98983 h 13.98983 13.98983 v 13.98983 13.98982 H 405.28103 391.2912 Z"
       id="path13430"
       transform="matrix(0.26458333,0,0,0.26458333,17.289016,62.963663)" />
    <path
       style="fill:#389723;fill-opacity:1;stroke:#000000;stroke-width:4.80000006;stroke-opacity:1;stroke-miterlimit:4;stroke-dasharray:none"
       d="m 331.09256,255.20835 v -13.98983 h 13.98982 13.98983 v 13.98983 13.98982 h -13.98983 -13.98982 z"
       id="path13469"
       transform="matrix(0.26458333,0,0,0.26458333,17.289016,62.963663)" />
    <path
       style="fill:#389723;fill-opacity:1;stroke:#000000;stroke-width:4.80000006;stroke-opacity:1;stroke-miterlimit:4;stroke-dasharray:none"
       d="m 331.09256,225.53296 v -13.98983 h 13.98982 13.98983 v 13.98983 13.98982 h -13.98983 -13.98982 z"
       id="path13508"
       transform="matrix(0.26458333,0,0,0.26458333,17.289016,62.963663)" />
    <path
       style="fill:#389723;fill-opacity:1;stroke:#000000;stroke-width:4.80000006;stroke-opacity:1;stroke-miterlimit:4;stroke-dasharray:none"
       d="m 331.09256,195.0097 v -13.98983 h 13.98982 13.98983 v 13.98983 13.98983 h -13.98983 -13.98982 z"
       id="path13547"
       transform="matrix(0.26458333,0,0,0.26458333,17.289016,62.963663)" />
    <path
       style="fill:#389723;fill-opacity:1;stroke:#000000;stroke-width:4.80000006;stroke-opacity:1;stroke-miterlimit:4;stroke-dasharray:none"
       d="m 301.41717,195.0097 v -13.98983 h 13.98982 13.98983 v 13.98983 13.98983 h -13.98983 -13.98982 z"
       id="path13586"
       transform="matrix(0.26458333,0,0,0.26458333,17.289016,62.963663)" />
    <path
       style="fill:#389723;fill-opacity:1;stroke:#000000;stroke-width:4.80000006;stroke-opacity:1;stroke-miterlimit:4;stroke-dasharray:none"
       d="m 301.41717,225.53296 v -13.98983 h 13.98982 13.98983 v 13.98983 13.98982 h -13.98983 -13.98982 z"
       id="path13625"
       transform="matrix(0.26458333,0,0,0.26458333,17.289016,62.963663)" />
    <path
       style="fill:#389723;fill-opacity:1;stroke:#000000;stroke-width:4.80000006;stroke-opacity:1;stroke-miterlimit:4;stroke-dasharray:none"
       d="m 301.41717,255.20835 v -13.98983 h 13.98982 13.98983 v 13.98983 13.98982 h -13.98983 -13.98982 z"
       id="path13664"
       transform="matrix(0.26458333,0,0,0.26458333,17.289016,62.963663)" />
    <path
       style="fill:#389723;fill-opacity:1;stroke:#000000;stroke-width:4.80000006;stroke-opacity:1;stroke-miterlimit:4;stroke-dasharray:none"
       d="m 270.89391,255.20835 v -13.98983 h 14.41376 14.41376 v 13.98983 13.98982 h -14.41376 -14.41376 z"
       id="path13703"
       transform="matrix(0.26458333,0,0,0.26458333,17.289016,62.963663)" />
    <path
       style="fill:#389723;fill-opacity:1;stroke:#000000;stroke-width:4.80000006;stroke-opacity:1;stroke-miterlimit:4;stroke-dasharray:none"
       d="m 241.21852,255.20835 v -13.98983 h 13.98983 13.98982 v 13.98983 13.98982 h -13.98982 -13.98983 z"
       id="path13742"
       transform="matrix(0.26458333,0,0,0.26458333,17.289016,62.963663)" />
    <path
       style="fill:#389723;fill-opacity:1;stroke:#000000;stroke-width:4.80000006;stroke-opacity:1;stroke-miterlimit:4;stroke-dasharray:none"
       d="m 270.89391,225.53296 v -13.98983 h 14.41376 14.41376 v 13.98983 13.98982 h -14.41376 -14.41376 z"
       id="path13781"
       transform="matrix(0.26458333,0,0,0.26458333,17.289016,62.963663)" />
    <path
       style="fill:#389723;fill-opacity:1;stroke:#000000;stroke-width:4.80000006;stroke-opacity:1;stroke-miterlimit:4;stroke-dasharray:none"
       d="m 241.21852,225.53296 v -13.98983 h 13.98983 13.98982 v 13.98983 13.98982 h -13.98982 -13.98983 z"
       id="path13820"
       transform="matrix(0.26458333,0,0,0.26458333,17.289016,62.963663)" />
    <path
       style="fill:#389723;fill-opacity:1;stroke:#000000;stroke-width:4.80000006;stroke-opacity:1;stroke-miterlimit:4;stroke-dasharray:none"
       d="m 211.54313,225.53296 v -13.98983 h 13.98983 13.98982 v 13.98983 13.98982 h -13.98982 -13.98983 z"
       id="path13859"
       transform="matrix(0.26458333,0,0,0.26458333,17.289016,62.963663)" />
    <path
       style="fill:#389723;fill-opacity:1;stroke:#000000;stroke-width:4.80000006;stroke-opacity:1;stroke-miterlimit:4;stroke-dasharray:none"
       d="m 211.54313,195.0097 v -13.98983 h 13.98983 13.98982 v 13.98983 13.98983 h -13.98982 -13.98983 z"
       id="path13898"
       transform="matrix(0.26458333,0,0,0.26458333,17.289016,62.963663)" />
    <path
       style="fill:#389723;fill-opacity:1;stroke:#000000;stroke-width:4.80000006;stroke-opacity:1;stroke-miterlimit:4;stroke-dasharray:none"
       d="m 241.21852,195.0097 v -13.98983 h 13.98983 13.98982 v 13.98983 13.98983 h -13.98982 -13.98983 z"
       id="path13937"
       transform="matrix(0.26458333,0,0,0.26458333,17.289016,62.963663)" />
    <path
       style="fill:#389723;fill-opacity:1;stroke:#000000;stroke-width:4.80000006;stroke-opacity:1;stroke-miterlimit:4;stroke-dasharray:none"
       d="m 270.89391,195.0097 v -13.98983 h 14.41376 14.41376 v 13.98983 13.98983 h -14.41376 -14.41376 z"
       id="path13976"
       transform="matrix(0.26458333,0,0,0.26458333,17.289016,62.963663)" />
    <path
       style="fill:#389723;fill-opacity:1;stroke:#000000;stroke-width:4.80000006;stroke-opacity:1;stroke-miterlimit:4;stroke-dasharray:none"
       d="m 241.21852,165.33431 v -13.98982 h 13.98983 13.98982 v 13.98982 13.98983 h -13.98982 -13.98983 z"
       id="path14015"
       transform="matrix(0.26458333,0,0,0.26458333,17.289016,62.963663)" />
    <path
       style="fill:#389723;fill-opacity:1;stroke:#000000;stroke-width:4.80000006;stroke-opacity:1;stroke-miterlimit:4;stroke-dasharray:none"
       d="m 211.54313,165.33431 v -13.98982 h 13.98983 13.98982 v 13.98982 13.98983 h -13.98982 -13.98983 z"
       id="path14054"
       transform="matrix(0.26458333,0,0,0.26458333,17.289016,62.963663)" />
    <path
       style="fill:#389723;fill-opacity:1;stroke:#000000;stroke-width:4.80000006;stroke-opacity:1;stroke-miterlimit:4;stroke-dasharray:none"
       d="m 211.54313,135.23499 v -14.41376 h 13.98983 13.98982 v 14.41376 14.41376 h -13.98982 -13.98983 z"
       id="path14093"
       transform="matrix(0.26458333,0,0,0.26458333,17.289016,62.963663)" />
    <path
       style="fill:#389723;fill-opacity:1;stroke:#000000;stroke-width:4.80000006;stroke-opacity:1;stroke-miterlimit:4;stroke-dasharray:none"
       d="m 181.01987,135.23499 v -14.41376 h 13.98983 13.98983 v 14.41376 14.41376 H 195.0097 181.01987 Z"
       id="path14132"
       transform="matrix(0.26458333,0,0,0.26458333,17.289016,62.963663)" />
    <path
       style="fill:#389723;fill-opacity:1;stroke:#000000;stroke-width:4.80000006;stroke-opacity:1;stroke-miterlimit:4;stroke-dasharray:none"
       d="m 181.01987,165.33431 v -13.98982 h 13.98983 13.98983 v 13.98982 13.98983 H 195.0097 181.01987 Z"
       id="path14171"
       transform="matrix(0.26458333,0,0,0.26458333,17.289016,62.963663)" />
    <path
       style="fill:#ca3a33;fill-opacity:1;stroke:#000000;stroke-width:4.80000006;stroke-opacity:1;stroke-miterlimit:4;stroke-dasharray:none"
       d="m 120.82123,315.40699 v -13.98982 h 14.41376 14.41376 v 13.98982 13.98983 h -14.41376 -14.41376 z"
       id="path17589"
       transform="matrix(0.26458333,0,0,0.26458333,17.289016,62.963663)" />
    <path
       style="fill:#ca3a33;fill-opacity:1;stroke:#000000;stroke-width:4.80000006;stroke-opacity:1;stroke-miterlimit:4;stroke-dasharray:none"
       d="m 151.34449,315.40699 v -13.98982 h 13.98982 13.98983 v 13.98982 13.98983 h -13.98983 -13.98982 z"
       id="path17628"
       transform="matrix(0.26458333,0,0,0.26458333,17.289016,62.963663)" />
    <path
       style="fill:#ca3a33;fill-opacity:1;stroke:#000000;stroke-width:4.80000006;stroke-opacity:1;stroke-miterlimit:4;stroke-dasharray:none"
       d="m 61.470449,345.08238 v -13.98982 h 13.989826 13.989827 v 13.98982 13.98983 H 75.460275 61.470449 Z"
       id="path17667"
       transform="matrix(0.26458333,0,0,0.26458333,17.289016,62.963663)" />
    <path
       style="fill:#ca3a33;fill-opacity:1;stroke:#000000;stroke-width:4.80000006;stroke-opacity:1;stroke-miterlimit:4;stroke-dasharray:none"
       d="m 91.145838,345.08238 v -13.98982 h 13.989822 13.98983 v 13.98982 13.98983 H 105.13566 91.145838 Z"
       id="path17706"
       transform="matrix(0.26458333,0,0,0.26458333,17.289016,62.963663)" />
    <path
       style="fill:#ca3a33;fill-opacity:1;stroke:#000000;stroke-width:4.80000006;stroke-opacity:1;stroke-miterlimit:4;stroke-dasharray:none"
       d="m 120.82123,345.08238 v -13.98982 h 14.41376 14.41376 v 13.98982 13.98983 h -14.41376 -14.41376 z"
       id="path17745"
       transform="matrix(0.26458333,0,0,0.26458333,17.289016,62.963663)" />
    <path
       style="fill:#ca3a33;fill-opacity:1;stroke:#000000;stroke-width:4.80000006;stroke-opacity:1;stroke-miterlimit:4;stroke-dasharray:none"
       d="m 151.34449,345.08238 v -13.98982 h 13.98982 13.98983 v 13.98982 13.98983 h -13.98983 -13.98982 z"
       id="path17784"
       transform="matrix(0.26458333,0,0,0.26458333,17.289016,62.963663)" />
    <path
       style="fill:#ca3a33;fill-opacity:1;stroke:#000000;stroke-width:4.80000006;stroke-opacity:1;stroke-miterlimit:4;stroke-dasharray:none"
       d="m 181.01987,345.08238 v -13.98982 h 13.98983 13.98983 v 13.98982 13.98983 H 195.0097 181.01987 Z"
       id="path17823"
       transform="matrix(0.26458333,0,0,0.26458333,17.289016,62.963663)" />
    <path
       style="fill:#ca3a33;fill-opacity:1;stroke:#000000;stroke-width:4.80000006;stroke-opacity:1;stroke-miterlimit:4;stroke-dasharray:none"
       d="m 211.54313,345.08238 v -13.98982 h 13.98983 13.98982 v 13.98982 13.98983 h -13.98982 -13.98983 z"
       id="path17862"
       transform="matrix(0.26458333,0,0,0.26458333,17.289016,62.963663)" />
    <path
       style="fill:#ca3a33;fill-opacity:1;stroke:#000000;stroke-width:4.80000006;stroke-opacity:1;stroke-miterlimit:4;stroke-dasharray:none"
       d="m 61.470449,375.18171 v -14.41376 h 13.989826 13.989827 v 14.41376 14.41376 H 75.460275 61.470449 Z"
       id="path17901"
       transform="matrix(0.26458333,0,0,0.26458333,17.289016,62.963663)" />
    <path
       style="fill:#ca3a33;fill-opacity:1;stroke:#000000;stroke-width:4.80000006;stroke-opacity:1;stroke-miterlimit:4;stroke-dasharray:none"
       d="m 91.145838,375.18171 v -14.41376 h 13.989822 13.98983 v 14.41376 14.41376 H 105.13566 91.145838 Z"
       id="path17940"
       transform="matrix(0.26458333,0,0,0.26458333,17.289016,62.963663)" />
    <path
       style="fill:#ca3a33;fill-opacity:1;stroke:#000000;stroke-width:4.80000006;stroke-opacity:1;stroke-miterlimit:4;stroke-dasharray:none"
       d="m 120.82123,375.18171 v -14.41376 h 14.41376 14.41376 v 14.41376 14.41376 h -14.41376 -14.41376 z"
       id="path17979"
       transform="matrix(0.26458333,0,0,0.26458333,17.289016,62.963663)" />
    <path
       style="fill:#ca3a33;fill-opacity:1;stroke:#000000;stroke-width:4.80000006;stroke-opacity:1;stroke-miterlimit:4;stroke-dasharray:none"
       d="m 151.34449,375.18171 v -14.41376 h 13.98982 13.98983 v 14.41376 14.41376 h -13.98983 -13.98982 z"
       id="path18018"
       transform="matrix(0.26458333,0,0,0.26458333,17.289016,62.963663)" />
    <path
       style="fill:#ca3a33;fill-opacity:1;stroke:#000000;stroke-width:4.80000006;stroke-opacity:1;stroke-miterlimit:4;stroke-dasharray:none"
       d="m 181.01987,375.18171 v -14.41376 h 13.98983 13.98983 v 14.41376 14.41376 H 195.0097 181.01987 Z"
       id="path18057"
       transform="matrix(0.26458333,0,0,0.26458333,17.289016,62.963663)" />
    <path
       style="fill:#ca3a33;fill-opacity:1;stroke:#000000;stroke-width:4.80000006;stroke-opacity:1;stroke-miterlimit:4;stroke-dasharray:none"
       d="m 211.54313,375.18171 v -14.41376 h 13.98983 13.98982 v 14.41376 14.41376 h -13.98982 -13.98983 z"
       id="path18096"
       transform="matrix(0.26458333,0,0,0.26458333,17.289016,62.963663)" />
    <path
       style="fill:#ca3a33;fill-opacity:1;stroke:#000000;stroke-width:4.80000006;stroke-opacity:1;stroke-miterlimit:4;stroke-dasharray:none"
       d="m 241.21852,375.18171 v -14.41376 h 13.98983 13.98982 v 14.41376 14.41376 h -13.98982 -13.98983 z"
       id="path18135"
       transform="matrix(0.26458333,0,0,0.26458333,17.289016,62.963663)" />
    <path
       style="fill:#ca3a33;fill-opacity:1;stroke:#000000;stroke-width:4.80000006;stroke-opacity:1;stroke-miterlimit:4;stroke-dasharray:none"
       d="M 241.21852,405.28103 V 391.2912 h 13.98983 13.98982 v 13.98983 13.98983 h -13.98982 -13.98983 z"
       id="path18174"
       transform="matrix(0.26458333,0,0,0.26458333,17.289016,62.963663)" />
    <path
       style="fill:#ca3a33;fill-opacity:1;stroke:#000000;stroke-width:4.80000006;stroke-opacity:1;stroke-miterlimit:4;stroke-dasharray:none"
       d="M 211.54313,405.28103 V 391.2912 h 13.98983 13.98982 v 13.98983 13.98983 h -13.98982 -13.98983 z"
       id="path18213"
       transform="matrix(0.26458333,0,0,0.26458333,17.289016,62.963663)" />
    <path
       style="fill:#ca3a33;fill-opacity:1;stroke:#000000;stroke-width:4.80000006;stroke-opacity:1;stroke-miterlimit:4;stroke-dasharray:none"
       d="M 181.01987,405.28103 V 391.2912 h 13.98983 13.98983 v 13.98983 13.98983 H 195.0097 181.01987 Z"
       id="path18252"
       transform="matrix(0.26458333,0,0,0.26458333,17.289016,62.963663)" />
    <path
       style="fill:#ca3a33;fill-opacity:1;stroke:#000000;stroke-width:4.80000006;stroke-opacity:1;stroke-miterlimit:4;stroke-dasharray:none"
       d="M 151.34449,405.28103 V 391.2912 h 13.98982 13.98983 v 13.98983 13.98983 h -13.98983 -13.98982 z"
       id="path18291"
       transform="matrix(0.26458333,0,0,0.26458333,17.289016,62.963663)" />
    <path
       style="fill:#ca3a33;fill-opacity:1;stroke:#000000;stroke-width:4.80000006;stroke-opacity:1;stroke-miterlimit:4;stroke-dasharray:none"
       d="M 120.82123,405.28103 V 391.2912 h 14.41376 14.41376 v 13.98983 13.98983 h -14.41376 -14.41376 z"
       id="path18330"
       transform="matrix(0.26458333,0,0,0.26458333,17.289016,62.963663)" />
    <path
       style="fill:#ca3a33;fill-opacity:1;stroke:#000000;stroke-width:4.80000006;stroke-opacity:1;stroke-miterlimit:4;stroke-dasharray:none"
       d="M 91.145838,405.28103 V 391.2912 h 13.989822 13.98983 v 13.98983 13.98983 H 105.13566 91.145838 Z"
       id="path18369"
       transform="matrix(0.26458333,0,0,0.26458333,17.289016,62.963663)" />
    <path
       style="fill:#ca3a33;fill-opacity:1;stroke:#000000;stroke-width:4.80000006;stroke-opacity:1;stroke-miterlimit:4;stroke-dasharray:none"
       d="M 61.470449,405.28103 V 391.2912 h 13.989826 13.989827 v 13.98983 13.98983 H 75.460275 61.470449 Z"
       id="path18408"
       transform="matrix(0.26458333,0,0,0.26458333,17.289016,62.963663)" />
    <path
       style="fill:#ca3a33;fill-opacity:1;stroke:#000000;stroke-width:4.80000006;stroke-opacity:1;stroke-miterlimit:4;stroke-dasharray:none"
       d="M 30.947192,405.28103 V 391.2912 h 13.989826 13.989826 v 13.98983 13.98983 H 44.937018 30.947192 Z"
       id="path18447"
       transform="matrix(0.26458333,0,0,0.26458333,17.289016,62.963663)" />
    <path
       style="fill:#ca3a33;fill-opacity:1;stroke:#000000;stroke-width:4.80000006;stroke-opacity:1;stroke-miterlimit:4;stroke-dasharray:none"
       d="m 30.947192,434.95642 v -13.98983 h 13.989826 13.989826 v 13.98983 13.98983 H 44.937018 30.947192 Z"
       id="path18486"
       transform="matrix(0.26458333,0,0,0.26458333,17.289016,62.963663)" />
    <path
       style="fill:#ca3a33;fill-opacity:1;stroke:#000000;stroke-width:4.80000006;stroke-opacity:1;stroke-miterlimit:4;stroke-dasharray:none"
       d="m 61.470449,434.95642 v -13.98983 h 13.989826 13.989827 v 13.98983 13.98983 H 75.460275 61.470449 Z"
       id="path18525"
       transform="matrix(0.26458333,0,0,0.26458333,17.289016,62.963663)" />
    <path
       style="fill:#ca3a33;fill-opacity:1;stroke:#000000;stroke-width:4.80000006;stroke-opacity:1;stroke-miterlimit:4;stroke-dasharray:none"
       d="m 91.145838,434.95642 v -13.98983 h 13.989822 13.98983 v 13.98983 13.98983 H 105.13566 91.145838 Z"
       id="path18564"
       transform="matrix(0.26458333,0,0,0.26458333,17.289016,62.963663)" />
    <path
       style="fill:#ca3a33;fill-opacity:1;stroke:#000000;stroke-width:4.80000006;stroke-opacity:1;stroke-miterlimit:4;stroke-dasharray:none"
       d="m 120.82123,434.95642 v -13.98983 h 14.41376 14.41376 v 13.98983 13.98983 h -14.41376 -14.41376 z"
       id="path18603"
       transform="matrix(0.26458333,0,0,0.26458333,17.289016,62.963663)" />
    <path
       style="fill:#ca3a33;fill-opacity:1;stroke:#000000;stroke-width:4.80000006;stroke-opacity:1;stroke-miterlimit:4;stroke-dasharray:none"
       d="m 151.34449,434.95642 v -13.98983 h 13.98982 13.98983 v 13.98983 13.98983 h -13.98983 -13.98982 z"
       id="path18642"
       transform="matrix(0.26458333,0,0,0.26458333,17.289016,62.963663)" />
    <path
       style="fill:#ca3a33;fill-opacity:1;stroke:#000000;stroke-width:4.80000006;stroke-opacity:1;stroke-miterlimit:4;stroke-dasharray:none"
       d="m 181.01987,434.95642 v -13.98983 h 13.98983 13.98983 v 13.98983 13.98983 H 195.0097 181.01987 Z"
       id="path18681"
       transform="matrix(0.26458333,0,0,0.26458333,17.289016,62.963663)" />
    <path
       style="fill:#ca3a33;fill-opacity:1;stroke:#000000;stroke-width:4.80000006;stroke-opacity:1;stroke-miterlimit:4;stroke-dasharray:none"
       d="m 211.54313,434.95642 v -13.98983 h 13.98983 13.98982 v 13.98983 13.98983 h -13.98982 -13.98983 z"
       id="path18720"
       transform="matrix(0.26458333,0,0,0.26458333,17.289016,62.963663)" />
    <path
       style="fill:#ca3a33;fill-opacity:1;stroke:#000000;stroke-width:4.80000006;stroke-opacity:1;stroke-miterlimit:4;stroke-dasharray:none"
       d="m 241.21852,434.95642 v -13.98983 h 13.98983 13.98982 v 13.98983 13.98983 h -13.98982 -13.98983 z"
       id="path18759"
       transform="matrix(0.26458333,0,0,0.26458333,17.289016,62.963663)" />
    <path
       style="fill:#ca3a33;fill-opacity:1;stroke:#000000;stroke-width:4.80000006;stroke-opacity:1;stroke-miterlimit:4;stroke-dasharray:none"
       d="m 241.21852,465.47968 v -13.98983 h 13.98983 13.98982 v 13.98983 13.98982 h -13.98982 -13.98983 z"
       id="path18798"
       transform="matrix(0.26458333,0,0,0.26458333,17.289016,62.963663)" />
    <path
       style="fill:#ca3a33;fill-opacity:1;stroke:#000000;stroke-width:4.80000006;stroke-opacity:1;stroke-miterlimit:4;stroke-dasharray:none"
       d="m 211.54313,465.47968 v -13.98983 h 13.98983 13.98982 v 13.98983 13.98982 h -13.98982 -13.98983 z"
       id="path18837"
       transform="matrix(0.26458333,0,0,0.26458333,17.289016,62.963663)" />
    <path
       style="fill:#ca3a33;fill-opacity:1;stroke:#000000;stroke-width:4.80000006;stroke-opacity:1;stroke-miterlimit:4;stroke-dasharray:none"
       d="m 181.01987,465.47968 v -13.98983 h 13.98983 13.98983 v 13.98983 13.98982 H 195.0097 181.01987 Z"
       id="path18876"
       transform="matrix(0.26458333,0,0,0.26458333,17.289016,62.963663)" />
    <path
       style="fill:#ca3a33;fill-opacity:1;stroke:#000000;stroke-width:4.80000006;stroke-opacity:1;stroke-miterlimit:4;stroke-dasharray:none"
       d="m 151.34449,465.47968 v -13.98983 h 13.98982 13.98983 v 13.98983 13.98982 h -13.98983 -13.98982 z"
       id="path18915"
       transform="matrix(0.26458333,0,0,0.26458333,17.289016,62.963663)" />
    <path
       style="fill:#ca3a33;fill-opacity:1;stroke:#000000;stroke-width:4.80000006;stroke-opacity:1;stroke-miterlimit:4;stroke-dasharray:none"
       d="m 120.82123,465.47968 v -13.98983 h 14.41376 14.41376 v 13.98983 13.98982 h -14.41376 -14.41376 z"
       id="path18954"
       transform="matrix(0.26458333,0,0,0.26458333,17.289016,62.963663)" />
    <path
       style="fill:#ca3a33;fill-opacity:1;stroke:#000000;stroke-width:4.80000006;stroke-opacity:1;stroke-miterlimit:4;stroke-dasharray:none"
       d="m 91.145838,465.47968 v -13.98983 h 13.989822 13.98983 v 13.98983 13.98982 H 105.13566 91.145838 Z"
       id="path18993"
       transform="matrix(0.26458333,0,0,0.26458333,17.289016,62.963663)" />
    <path
       style="fill:#ca3a33;fill-opacity:1;stroke:#000000;stroke-width:4.80000006;stroke-opacity:1;stroke-miterlimit:4;stroke-dasharray:none"
       d="m 61.470449,465.47968 v -13.98983 h 13.989826 13.989827 v 13.98983 13.98982 H 75.460275 61.470449 Z"
       id="path19032"
       transform="matrix(0.26458333,0,0,0.26458333,17.289016,62.963663)" />
    <path
       style="fill:#ca3a33;fill-opacity:1;stroke:#000000;stroke-width:4.80000006;stroke-opacity:1;stroke-miterlimit:4;stroke-dasharray:none"
       d="m 30.947192,465.47968 v -13.98983 h 13.989826 13.989826 v 13.98983 13.98982 H 44.937018 30.947192 Z"
       id="path19071"
       transform="matrix(0.26458333,0,0,0.26458333,17.289016,62.963663)" />
    <path
       style="fill:#ca3a33;fill-opacity:1;stroke:#000000;stroke-width:4.80000006;stroke-opacity:1;stroke-miterlimit:4;stroke-dasharray:none"
       d="m 30.947192,495.15507 v -13.98983 h 13.989826 13.989826 v 13.98983 13.98982 H 44.937018 30.947192 Z"
       id="path19149"
       transform="matrix(0.26458333,0,0,0.26458333,17.289016,62.963663)" />
    <path
       style="fill:#ca3a33;fill-opacity:1;stroke:#000000;stroke-width:4.80000006;stroke-opacity:1;stroke-miterlimit:4;stroke-dasharray:none"
       d="m 61.470449,495.15507 v -13.98983 h 13.989826 13.989827 v 13.98983 13.98982 H 75.460275 61.470449 Z"
       id="path19188"
       transform="matrix(0.26458333,0,0,0.26458333,17.289016,62.963663)" />
    <path
       style="fill:#ca3a33;fill-opacity:1;stroke:#000000;stroke-width:4.80000006;stroke-opacity:1;stroke-miterlimit:4;stroke-dasharray:none"
       d="m 91.145838,495.15507 v -13.98983 h 13.989822 13.98983 v 13.98983 13.98982 H 105.13566 91.145838 Z"
       id="path19227"
       transform="matrix(0.26458333,0,0,0.26458333,17.289016,62.963663)" />
    <path
       style="fill:#ca3a33;fill-opacity:1;stroke:#000000;stroke-width:4.80000006;stroke-opacity:1;stroke-miterlimit:4;stroke-dasharray:none"
       d="m 120.82123,495.15507 v -13.98983 h 14.41376 14.41376 v 13.98983 13.98982 h -14.41376 -14.41376 z"
       id="path19266"
       transform="matrix(0.26458333,0,0,0.26458333,17.289016,62.963663)" />
    <path
       style="fill:#ca3a33;fill-opacity:1;stroke:#000000;stroke-width:4.80000006;stroke-opacity:1;stroke-miterlimit:4;stroke-dasharray:none"
       d="m 151.34449,495.15507 v -13.98983 h 13.98982 13.98983 v 13.98983 13.98982 h -13.98983 -13.98982 z"
       id="path19305"
       transform="matrix(0.26458333,0,0,0.26458333,17.289016,62.963663)" />
    <path
       style="fill:#ca3a33;fill-opacity:1;stroke:#000000;stroke-width:4.80000006;stroke-opacity:1;stroke-miterlimit:4;stroke-dasharray:none"
       d="m 181.01987,495.15507 v -13.98983 h 13.98983 13.98983 v 13.98983 13.98982 H 195.0097 181.01987 Z"
       id="path19344"
       transform="matrix(0.26458333,0,0,0.26458333,17.289016,62.963663)" />
    <path
       style="fill:#ca3a33;fill-opacity:1;stroke:#000000;stroke-width:4.80000006;stroke-opacity:1;stroke-miterlimit:4;stroke-dasharray:none"
       d="m 211.54313,495.15507 v -13.98983 h 13.98983 13.98982 v 13.98983 13.98982 h -13.98982 -13.98983 z"
       id="path19383"
       transform="matrix(0.26458333,0,0,0.26458333,17.289016,62.963663)" />
    <path
       style="fill:#ca3a33;fill-opacity:1;stroke:#000000;stroke-width:4.80000006;stroke-opacity:1;stroke-miterlimit:4;stroke-dasharray:none"
       d="m 241.21852,495.15507 v -13.98983 h 13.98983 13.98982 v 13.98983 13.98982 h -13.98982 -13.98983 z"
       id="path19422"
       transform="matrix(0.26458333,0,0,0.26458333,17.289016,62.963663)" />
    <path
       style="fill:#ca3a33;fill-opacity:1;stroke:#000000;stroke-width:4.80000006;stroke-opacity:1;stroke-miterlimit:4;stroke-dasharray:none"
       d="m 211.54313,525.25439 v -14.41376 h 13.98983 13.98982 v 14.41376 14.41376 h -13.98982 -13.98983 z"
       id="path19461"
       transform="matrix(0.26458333,0,0,0.26458333,17.289016,62.963663)" />
    <path
       style="fill:#ca3a33;fill-opacity:1;stroke:#000000;stroke-width:4.80000006;stroke-opacity:1;stroke-miterlimit:4;stroke-dasharray:none"
       d="m 181.01987,525.25439 v -14.41376 h 13.98983 13.98983 v 14.41376 14.41376 H 195.0097 181.01987 Z"
       id="path19500"
       transform="matrix(0.26458333,0,0,0.26458333,17.289016,62.963663)" />
    <path
       style="fill:#ca3a33;fill-opacity:1;stroke:#000000;stroke-width:4.80000006;stroke-opacity:1;stroke-miterlimit:4;stroke-dasharray:none"
       d="m 151.34449,525.25439 v -14.41376 h 13.98982 13.98983 v 14.41376 14.41376 h -13.98983 -13.98982 z"
       id="path19539"
       transform="matrix(0.26458333,0,0,0.26458333,17.289016,62.963663)" />
    <path
       style="fill:#ca3a33;fill-opacity:1;stroke:#000000;stroke-width:4.80000006;stroke-opacity:1;stroke-miterlimit:4;stroke-dasharray:none"
       d="m 120.82123,525.25439 v -14.41376 h 14.41376 14.41376 v 14.41376 14.41376 h -14.41376 -14.41376 z"
       id="path19578"
       transform="matrix(0.26458333,0,0,0.26458333,17.289016,62.963663)" />
    <path
       style="fill:#ca3a33;fill-opacity:1;stroke:#000000;stroke-width:4.80000006;stroke-opacity:1;stroke-miterlimit:4;stroke-dasharray:none"
       d="m 91.145838,525.25439 v -14.41376 h 13.989822 13.98983 v 14.41376 14.41376 H 105.13566 91.145838 Z"
       id="path19617"
       transform="matrix(0.26458333,0,0,0.26458333,17.289016,62.963663)" />
    <path
       style="fill:#ca3a33;fill-opacity:1;stroke:#000000;stroke-width:4.80000006;stroke-opacity:1;stroke-miterlimit:4;stroke-dasharray:none"
       d="m 61.470449,525.25439 v -14.41376 h 13.989826 13.989827 v 14.41376 14.41376 H 75.460275 61.470449 Z"
       id="path19656"
       transform="matrix(0.26458333,0,0,0.26458333,17.289016,62.963663)" />
    <path
       style="fill:#ca3a33;fill-opacity:1;stroke:#000000;stroke-width:4.80000006;stroke-opacity:1;stroke-miterlimit:4;stroke-dasharray:none"
       d="m 120.82123,555.35371 v -13.98982 h 14.41376 14.41376 v 13.98982 13.98983 h -14.41376 -14.41376 z"
       id="path19695"
       transform="matrix(0.26458333,0,0,0.26458333,17.289016,62.963663)" />
    <path
       style="fill:#ca3a33;fill-opacity:1;stroke:#000000;stroke-width:4.80000006;stroke-opacity:1;stroke-miterlimit:4;stroke-dasharray:none"
       d="m 151.34449,555.35371 v -13.98982 h 13.98982 13.98983 v 13.98982 13.98983 h -13.98983 -13.98982 z"
       id="path19734"
       transform="matrix(0.26458333,0,0,0.26458333,17.289016,62.963663)" />
    <path
       style="fill:#ca3a33;fill-opacity:1;stroke:#000000;stroke-width:4.80000006;stroke-opacity:1;stroke-miterlimit:4;stroke-dasharray:none"
       d="m 181.01987,555.35371 v -13.98982 h 13.98983 13.98983 v 13.98982 13.98983 H 195.0097 181.01987 Z"
       id="path19773"
       transform="matrix(0.26458333,0,0,0.26458333,17.289016,62.963663)" />
    <path
       style="fill:#9457b0;fill-opacity:1;stroke:#000000;stroke-width:4.80000006;stroke-opacity:1;stroke-miterlimit:4;stroke-dasharray:none"
       d="m 451.48985,315.40699 v -13.98982 h 13.98983 13.98982 v 13.98982 13.98983 h -13.98982 -13.98983 z"
       id="path21136"
       transform="matrix(0.26458333,0,0,0.26458333,17.289016,62.963663)" />
    <path
       style="fill:#9457b0;fill-opacity:1;stroke:#000000;stroke-width:4.80000006;stroke-opacity:1;stroke-miterlimit:4;stroke-dasharray:none"
       d="m 481.16524,315.40699 v -13.98982 h 13.98983 13.98982 v 13.98982 13.98983 h -13.98982 -13.98983 z"
       id="path21175"
       transform="matrix(0.26458333,0,0,0.26458333,17.289016,62.963663)" />
    <path
       style="fill:#9457b0;fill-opacity:1;stroke:#000000;stroke-width:4.80000006;stroke-opacity:1;stroke-miterlimit:4;stroke-dasharray:none"
       d="m 391.2912,345.08238 v -13.98982 h 13.98983 13.98983 v 13.98982 13.98983 H 405.28103 391.2912 Z"
       id="path21214"
       transform="matrix(0.26458333,0,0,0.26458333,17.289016,62.963663)" />
    <path
       style="fill:#9457b0;fill-opacity:1;stroke:#000000;stroke-width:4.80000006;stroke-opacity:1;stroke-miterlimit:4;stroke-dasharray:none"
       d="m 420.96659,345.08238 v -13.98982 h 13.98983 13.98983 v 13.98982 13.98983 h -13.98983 -13.98983 z"
       id="path21253"
       transform="matrix(0.26458333,0,0,0.26458333,17.289016,62.963663)" />
    <path
       style="fill:#9457b0;fill-opacity:1;stroke:#000000;stroke-width:4.80000006;stroke-opacity:1;stroke-miterlimit:4;stroke-dasharray:none"
       d="m 451.48985,345.08238 v -13.98982 h 13.98983 13.98982 v 13.98982 13.98983 h -13.98982 -13.98983 z"
       id="path21292"
       transform="matrix(0.26458333,0,0,0.26458333,17.289016,62.963663)" />
    <path
       style="fill:#9457b0;fill-opacity:1;stroke:#000000;stroke-width:4.80000006;stroke-opacity:1;stroke-miterlimit:4;stroke-dasharray:none"
       d="m 481.16524,345.08238 v -13.98982 h 13.98983 13.98982 v 13.98982 13.98983 h -13.98982 -13.98983 z"
       id="path21331"
       transform="matrix(0.26458333,0,0,0.26458333,17.289016,62.963663)" />
    <path
       style="fill:#9457b0;fill-opacity:1;stroke:#000000;stroke-width:4.80000006;stroke-opacity:1;stroke-miterlimit:4;stroke-dasharray:none"
       d="m 510.84063,345.08238 v -13.98982 h 14.41376 14.41376 v 13.98982 13.98983 h -14.41376 -14.41376 z"
       id="path21370"
       transform="matrix(0.26458333,0,0,0.26458333,17.289016,62.963663)" />
    <path
       style="fill:#9457b0;fill-opacity:1;stroke:#000000;stroke-width:4.80000006;stroke-opacity:1;stroke-miterlimit:4;stroke-dasharray:none"
       d="m 541.36389,345.08238 v -13.98982 h 13.98982 13.98983 v 13.98982 13.98983 h -13.98983 -13.98982 z"
       id="path21409"
       transform="matrix(0.26458333,0,0,0.26458333,17.289016,62.963663)" />
    <path
       style="fill:#9457b0;fill-opacity:1;stroke:#000000;stroke-width:4.80000006;stroke-opacity:1;stroke-miterlimit:4;stroke-dasharray:none"
       d="m 360.76795,375.18171 v -14.41376 h 14.41376 14.41376 v 14.41376 14.41376 h -14.41376 -14.41376 z"
       id="path21448"
       transform="matrix(0.26458333,0,0,0.26458333,17.289016,62.963663)" />
    <path
       style="fill:#9457b0;fill-opacity:1;stroke:#000000;stroke-width:4.80000006;stroke-opacity:1;stroke-miterlimit:4;stroke-dasharray:none"
       d="m 391.2912,375.18171 v -14.41376 h 13.98983 13.98983 v 14.41376 14.41376 H 405.28103 391.2912 Z"
       id="path21487"
       transform="matrix(0.26458333,0,0,0.26458333,17.289016,62.963663)" />
    <path
       style="fill:#9457b0;fill-opacity:1;stroke:#000000;stroke-width:4.80000006;stroke-opacity:1;stroke-miterlimit:4;stroke-dasharray:none"
       d="m 420.96659,375.18171 v -14.41376 h 13.98983 13.98983 v 14.41376 14.41376 h -13.98983 -13.98983 z"
       id="path21526"
       transform="matrix(0.26458333,0,0,0.26458333,17.289016,62.963663)" />
    <path
       style="fill:#9457b0;fill-opacity:1;stroke:#000000;stroke-width:4.80000006;stroke-opacity:1;stroke-miterlimit:4;stroke-dasharray:none"
       d="m 451.48985,375.18171 v -14.41376 h 13.98983 13.98982 v 14.41376 14.41376 h -13.98982 -13.98983 z"
       id="path21565"
       transform="matrix(0.26458333,0,0,0.26458333,17.289016,62.963663)" />
    <path
       style="fill:#9457b0;fill-opacity:1;stroke:#000000;stroke-width:4.80000006;stroke-opacity:1;stroke-miterlimit:4;stroke-dasharray:none"
       d="m 481.16524,375.18171 v -14.41376 h 13.98983 13.98982 v 14.41376 14.41376 h -13.98982 -13.98983 z"
       id="path21604"
       transform="matrix(0.26458333,0,0,0.26458333,17.289016,62.963663)" />
    <path
       style="fill:#9457b0;fill-opacity:1;stroke:#000000;stroke-width:4.80000006;stroke-opacity:1;stroke-miterlimit:4;stroke-dasharray:none"
       d="m 510.84063,375.18171 v -14.41376 h 14.41376 14.41376 v 14.41376 14.41376 h -14.41376 -14.41376 z"
       id="path21643"
       transform="matrix(0.26458333,0,0,0.26458333,17.289016,62.963663)" />
    <path
       style="fill:#9457b0;fill-opacity:1;stroke:#000000;stroke-width:4.80000006;stroke-opacity:1;stroke-miterlimit:4;stroke-dasharray:none"
       d="m 541.36389,375.18171 v -14.41376 h 13.98982 13.98983 v 14.41376 14.41376 h -13.98983 -13.98982 z"
       id="path21682"
       transform="matrix(0.26458333,0,0,0.26458333,17.289016,62.963663)" />
    <path
       style="fill:#9457b0;fill-opacity:1;stroke:#000000;stroke-width:4.80000006;stroke-opacity:1;stroke-miterlimit:4;stroke-dasharray:none"
       d="m 571.03928,375.18171 v -14.41376 h 13.98982 13.98983 v 14.41376 14.41376 H 585.0291 571.03928 Z"
       id="path21721"
       transform="matrix(0.26458333,0,0,0.26458333,17.289016,62.963663)" />
    <path
       style="fill:#9457b0;fill-opacity:1;stroke:#000000;stroke-width:4.80000006;stroke-opacity:1;stroke-miterlimit:4;stroke-dasharray:none"
       d="M 571.03928,405.28103 V 391.2912 h 13.98982 13.98983 v 13.98983 13.98983 H 585.0291 571.03928 Z"
       id="path21760"
       transform="matrix(0.26458333,0,0,0.26458333,17.289016,62.963663)" />
    <path
       style="fill:#9457b0;fill-opacity:1;stroke:#000000;stroke-width:4.80000006;stroke-opacity:1;stroke-miterlimit:4;stroke-dasharray:none"
       d="M 541.36389,405.28103 V 391.2912 h 13.98982 13.98983 v 13.98983 13.98983 h -13.98983 -13.98982 z"
       id="path21799"
       transform="matrix(0.26458333,0,0,0.26458333,17.289016,62.963663)" />
    <path
       style="fill:#9457b0;fill-opacity:1;stroke:#000000;stroke-width:4.80000006;stroke-opacity:1;stroke-miterlimit:4;stroke-dasharray:none"
       d="M 510.84063,405.28103 V 391.2912 h 14.41376 14.41376 v 13.98983 13.98983 h -14.41376 -14.41376 z"
       id="path21838"
       transform="matrix(0.26458333,0,0,0.26458333,17.289016,62.963663)" />
    <path
       style="fill:#9457b0;fill-opacity:1;stroke:#000000;stroke-width:4.80000006;stroke-opacity:1;stroke-miterlimit:4;stroke-dasharray:none"
       d="M 481.16524,405.28103 V 391.2912 h 13.98983 13.98982 v 13.98983 13.98983 h -13.98982 -13.98983 z"
       id="path21877"
       transform="matrix(0.26458333,0,0,0.26458333,17.289016,62.963663)" />
    <path
       style="fill:#9457b0;fill-opacity:1;stroke:#000000;stroke-width:4.80000006;stroke-opacity:1;stroke-miterlimit:4;stroke-dasharray:none"
       d="M 451.48985,405.28103 V 391.2912 h 13.98983 13.98982 v 13.98983 13.98983 h -13.98982 -13.98983 z"
       id="path21916"
       transform="matrix(0.26458333,0,0,0.26458333,17.289016,62.963663)" />
    <path
       style="fill:#9457b0;fill-opacity:1;stroke:#000000;stroke-width:4.80000006;stroke-opacity:1;stroke-miterlimit:4;stroke-dasharray:none"
       d="M 420.96659,405.28103 V 391.2912 h 13.98983 13.98983 v 13.98983 13.98983 h -13.98983 -13.98983 z"
       id="path21955"
       transform="matrix(0.26458333,0,0,0.26458333,17.289016,62.963663)" />
    <path
       style="fill:#9457b0;fill-opacity:1;stroke:#000000;stroke-width:4.80000006;stroke-opacity:1;stroke-miterlimit:4;stroke-dasharray:none"
       d="M 391.2912,405.28103 V 391.2912 h 13.98983 13.98983 v 13.98983 13.98983 H 405.28103 391.2912 Z"
       id="path21994"
       transform="matrix(0.26458333,0,0,0.26458333,17.289016,62.963663)" />
    <path
       style="fill:#9457b0;fill-opacity:1;stroke:#000000;stroke-width:4.80000006;stroke-opacity:1;stroke-miterlimit:4;stroke-dasharray:none"
       d="M 360.76795,405.28103 V 391.2912 h 14.41376 14.41376 v 13.98983 13.98983 h -14.41376 -14.41376 z"
       id="path22033"
       transform="matrix(0.26458333,0,0,0.26458333,17.289016,62.963663)" />
    <path
       style="fill:#9457b0;fill-opacity:1;stroke:#000000;stroke-width:4.80000006;stroke-opacity:1;stroke-miterlimit:4;stroke-dasharray:none"
       d="m 360.76795,434.95642 v -13.98983 h 14.41376 14.41376 v 13.98983 13.98983 h -14.41376 -14.41376 z"
       id="path22072"
       transform="matrix(0.26458333,0,0,0.26458333,17.289016,62.963663)" />
    <path
       style="fill:#9457b0;fill-opacity:1;stroke:#000000;stroke-width:4.80000006;stroke-opacity:1;stroke-miterlimit:4;stroke-dasharray:none"
       d="m 391.2912,434.95642 v -13.98983 h 13.98983 13.98983 v 13.98983 13.98983 H 405.28103 391.2912 Z"
       id="path22111"
       transform="matrix(0.26458333,0,0,0.26458333,17.289016,62.963663)" />
    <path
       style="fill:#9457b0;fill-opacity:1;stroke:#000000;stroke-width:4.80000006;stroke-opacity:1;stroke-miterlimit:4;stroke-dasharray:none"
       d="m 420.96659,434.95642 v -13.98983 h 13.98983 13.98983 v 13.98983 13.98983 h -13.98983 -13.98983 z"
       id="path22150"
       transform="matrix(0.26458333,0,0,0.26458333,17.289016,62.963663)" />
    <path
       style="fill:#9457b0;fill-opacity:1;stroke:#000000;stroke-width:4.80000006;stroke-opacity:1;stroke-miterlimit:4;stroke-dasharray:none"
       d="m 451.48985,434.95642 v -13.98983 h 13.98983 13.98982 v 13.98983 13.98983 h -13.98982 -13.98983 z"
       id="path22189"
       transform="matrix(0.26458333,0,0,0.26458333,17.289016,62.963663)" />
    <path
       style="fill:#9457b0;fill-opacity:1;stroke:#000000;stroke-width:4.80000006;stroke-opacity:1;stroke-miterlimit:4;stroke-dasharray:none"
       d="m 481.16524,434.95642 v -13.98983 h 13.98983 13.98982 v 13.98983 13.98983 h -13.98982 -13.98983 z"
       id="path22228"
       transform="matrix(0.26458333,0,0,0.26458333,17.289016,62.963663)" />
    <path
       style="fill:#9457b0;fill-opacity:1;stroke:#000000;stroke-width:4.80000006;stroke-opacity:1;stroke-miterlimit:4;stroke-dasharray:none"
       d="m 510.84063,434.95642 v -13.98983 h 14.41376 14.41376 v 13.98983 13.98983 h -14.41376 -14.41376 z"
       id="path22267"
       transform="matrix(0.26458333,0,0,0.26458333,17.289016,62.963663)" />
    <path
       style="fill:#9457b0;fill-opacity:1;stroke:#000000;stroke-width:4.80000006;stroke-opacity:1;stroke-miterlimit:4;stroke-dasharray:none"
       d="m 541.36389,434.95642 v -13.98983 h 13.98982 13.98983 v 13.98983 13.98983 h -13.98983 -13.98982 z"
       id="path22306"
       transform="matrix(0.26458333,0,0,0.26458333,17.289016,62.963663)" />
    <path
       style="fill:#9457b0;fill-opacity:1;stroke:#000000;stroke-width:4.80000006;stroke-opacity:1;stroke-miterlimit:4;stroke-dasharray:none"
       d="m 571.03928,434.95642 v -13.98983 h 13.98982 13.98983 v 13.98983 13.98983 H 585.0291 571.03928 Z"
       id="path22345"
       transform="matrix(0.26458333,0,0,0.26458333,17.289016,62.963663)" />
    <path
       style="fill:#9457b0;fill-opacity:1;stroke:#000000;stroke-width:4.80000006;stroke-opacity:1;stroke-miterlimit:4;stroke-dasharray:none"
       d="m 360.76795,465.47968 v -13.98983 h 14.41376 14.41376 v 13.98983 13.98982 h -14.41376 -14.41376 z"
       id="path22384"
       transform="matrix(0.26458333,0,0,0.26458333,17.289016,62.963663)" />
    <path
       style="fill:#9457b0;fill-opacity:1;stroke:#000000;stroke-width:4.80000006;stroke-opacity:1;stroke-miterlimit:4;stroke-dasharray:none"
       d="m 391.2912,465.47968 v -13.98983 h 13.98983 13.98983 v 13.98983 13.98982 H 405.28103 391.2912 Z"
       id="path22423"
       transform="matrix(0.26458333,0,0,0.26458333,17.289016,62.963663)" />
    <path
       style="fill:#9457b0;fill-opacity:1;stroke:#000000;stroke-width:4.80000006;stroke-opacity:1;stroke-miterlimit:4;stroke-dasharray:none"
       d="m 420.96659,465.47968 v -13.98983 h 13.98983 13.98983 v 13.98983 13.98982 h -13.98983 -13.98983 z"
       id="path22462"
       transform="matrix(0.26458333,0,0,0.26458333,17.289016,62.963663)" />
    <path
       style="fill:#9457b0;fill-opacity:1;stroke:#000000;stroke-width:4.80000006;stroke-opacity:1;stroke-miterlimit:4;stroke-dasharray:none"
       d="m 451.48985,465.47968 v -13.98983 h 13.98983 13.98982 v 13.98983 13.98982 h -13.98982 -13.98983 z"
       id="path22501"
       transform="matrix(0.26458333,0,0,0.26458333,17.289016,62.963663)" />
    <path
       style="fill:#9457b0;fill-opacity:1;stroke:#000000;stroke-width:4.80000006;stroke-opacity:1;stroke-miterlimit:4;stroke-dasharray:none"
       d="m 481.16524,465.47968 v -13.98983 h 13.98983 13.98982 v 13.98983 13.98982 h -13.98982 -13.98983 z"
       id="path22540"
       transform="matrix(0.26458333,0,0,0.26458333,17.289016,62.963663)" />
    <path
       style="fill:#9457b0;fill-opacity:1;stroke:#000000;stroke-width:4.80000006;stroke-opacity:1;stroke-miterlimit:4;stroke-dasharray:none"
       d="m 510.84063,465.47968 v -13.98983 h 14.41376 14.41376 v 13.98983 13.98982 h -14.41376 -14.41376 z"
       id="path22579"
       transform="matrix(0.26458333,0,0,0.26458333,17.289016,62.963663)" />
    <path
       style="fill:#9457b0;fill-opacity:1;stroke:#000000;stroke-width:4.80000006;stroke-opacity:1;stroke-miterlimit:4;stroke-dasharray:none"
       d="m 541.36389,465.47968 v -13.98983 h 13.98982 13.98983 v 13.98983 13.98982 h -13.98983 -13.98982 z"
       id="path22618"
       transform="matrix(0.26458333,0,0,0.26458333,17.289016,62.963663)" />
    <path
       style="fill:#9457b0;fill-opacity:1;stroke:#000000;stroke-width:4.80000006;stroke-opacity:1;stroke-miterlimit:4;stroke-dasharray:none"
       d="m 571.03928,465.47968 v -13.98983 h 13.98982 13.98983 v 13.98983 13.98982 H 585.0291 571.03928 Z"
       id="path22657"
       transform="matrix(0.26458333,0,0,0.26458333,17.289016,62.963663)" />
    <path
       style="fill:#9457b0;fill-opacity:1;stroke:#000000;stroke-width:4.80000006;stroke-opacity:1;stroke-miterlimit:4;stroke-dasharray:none"
       d="m 571.03928,495.15507 v -13.98983 h 13.98982 13.98983 v 13.98983 13.98982 H 585.0291 571.03928 Z"
       id="path22696"
       transform="matrix(0.26458333,0,0,0.26458333,17.289016,62.963663)" />
    <path
       style="fill:#9457b0;fill-opacity:1;stroke:#000000;stroke-width:4.80000006;stroke-opacity:1;stroke-miterlimit:4;stroke-dasharray:none"
       d="m 541.36389,495.15507 v -13.98983 h 13.98982 13.98983 v 13.98983 13.98982 h -13.98983 -13.98982 z"
       id="path22735"
       transform="matrix(0.26458333,0,0,0.26458333,17.289016,62.963663)" />
    <path
       style="fill:#9457b0;fill-opacity:1;stroke:#000000;stroke-width:4.80000006;stroke-opacity:1;stroke-miterlimit:4;stroke-dasharray:none"
       d="m 510.84063,495.15507 v -13.98983 h 14.41376 14.41376 v 13.98983 13.98982 h -14.41376 -14.41376 z"
       id="path22774"
       transform="matrix(0.26458333,0,0,0.26458333,17.289016,62.963663)" />
    <path
       style="fill:#9457b0;fill-opacity:1;stroke:#000000;stroke-width:4.80000006;stroke-opacity:1;stroke-miterlimit:4;stroke-dasharray:none"
       d="m 481.16524,495.15507 v -13.98983 h 13.98983 13.98982 v 13.98983 13.98982 h -13.98982 -13.98983 z"
       id="path22813"
       transform="matrix(0.26458333,0,0,0.26458333,17.289016,62.963663)" />
    <path
       style="fill:#9457b0;fill-opacity:1;stroke:#000000;stroke-width:4.80000006;stroke-opacity:1;stroke-miterlimit:4;stroke-dasharray:none"
       d="m 451.48985,495.15507 v -13.98983 h 13.98983 13.98982 v 13.98983 13.98982 h -13.98982 -13.98983 z"
       id="path22891"
       transform="matrix(0.26458333,0,0,0.26458333,17.289016,62.963663)" />
    <path
       style="fill:#9457b0;fill-opacity:1;stroke:#000000;stroke-width:4.80000006;stroke-opacity:1;stroke-miterlimit:4;stroke-dasharray:none"
       d="m 420.96659,495.15507 v -13.98983 h 13.98983 13.98983 v 13.98983 13.98982 h -13.98983 -13.98983 z"
       id="path22930"
       transform="matrix(0.26458333,0,0,0.26458333,17.289016,62.963663)" />
    <path
       style="fill:#9457b0;fill-opacity:1;stroke:#000000;stroke-width:4.80000006;stroke-opacity:1;stroke-miterlimit:4;stroke-dasharray:none"
       d="m 391.2912,495.15507 v -13.98983 h 13.98983 13.98983 v 13.98983 13.98982 H 405.28103 391.2912 Z"
       id="path22969"
       transform="matrix(0.26458333,0,0,0.26458333,17.289016,62.963663)" />
    <path
       style="fill:#9457b0;fill-opacity:1;stroke:#000000;stroke-width:4.80000006;stroke-opacity:1;stroke-miterlimit:4;stroke-dasharray:none"
       d="m 360.76795,495.15507 v -13.98983 h 14.41376 14.41376 v 13.98983 13.98982 h -14.41376 -14.41376 z"
       id="path23008"
       transform="matrix(0.26458333,0,0,0.26458333,17.289016,62.963663)" />
    <path
       style="fill:#9457b0;fill-opacity:1;stroke:#000000;stroke-width:4.80000006;stroke-opacity:1;stroke-miterlimit:4;stroke-dasharray:none"
       d="m 391.2912,525.25439 v -14.41376 h 13.98983 13.98983 v 14.41376 14.41376 H 405.28103 391.2912 Z"
       id="path23047"
       transform="matrix(0.26458333,0,0,0.26458333,17.289016,62.963663)" />
    <path
       style="fill:#9457b0;fill-opacity:1;stroke:#000000;stroke-width:4.80000006;stroke-opacity:1;stroke-miterlimit:4;stroke-dasharray:none"
       d="m 420.96659,525.25439 v -14.41376 h 13.98983 13.98983 v 14.41376 14.41376 h -13.98983 -13.98983 z"
       id="path23086"
       transform="matrix(0.26458333,0,0,0.26458333,17.289016,62.963663)" />
    <path
       style="fill:#9457b0;fill-opacity:1;stroke:#000000;stroke-width:4.80000006;stroke-opacity:1;stroke-miterlimit:4;stroke-dasharray:none"
       d="m 451.48985,525.25439 v -14.41376 h 13.98983 13.98982 v 14.41376 14.41376 h -13.98982 -13.98983 z"
       id="path23125"
       transform="matrix(0.26458333,0,0,0.26458333,17.289016,62.963663)" />
    <path
       style="fill:#9457b0;fill-opacity:1;stroke:#000000;stroke-width:4.80000006;stroke-opacity:1;stroke-miterlimit:4;stroke-dasharray:none"
       d="m 481.16524,525.25439 v -14.41376 h 13.98983 13.98982 v 14.41376 14.41376 h -13.98982 -13.98983 z"
       id="path23164"
       transform="matrix(0.26458333,0,0,0.26458333,17.289016,62.963663)" />
    <path
       style="fill:#9457b0;fill-opacity:1;stroke:#000000;stroke-width:4.80000006;stroke-opacity:1;stroke-miterlimit:4;stroke-dasharray:none"
       d="m 510.84063,525.25439 v -14.41376 h 14.41376 14.41376 v 14.41376 14.41376 h -14.41376 -14.41376 z"
       id="path23203"
       transform="matrix(0.26458333,0,0,0.26458333,17.289016,62.963663)" />
    <path
       style="fill:#9457b0;fill-opacity:1;stroke:#000000;stroke-width:4.80000006;stroke-opacity:1;stroke-miterlimit:4;stroke-dasharray:none"
       d="m 541.36389,525.25439 v -14.41376 h 13.98982 13.98983 v 14.41376 14.41376 h -13.98983 -13.98982 z"
       id="path23242"
       transform="matrix(0.26458333,0,0,0.26458333,17.289016,62.963663)" />
    <path
       style="fill:#9457b0;fill-opacity:1;stroke:#000000;stroke-width:4.80000006;stroke-opacity:1;stroke-miterlimit:4;stroke-dasharray:none"
       d="m 481.16524,555.35371 v -13.98982 h 13.98983 13.98982 v 13.98982 13.98983 h -13.98982 -13.98983 z"
       id="path23320"
       transform="matrix(0.26458333,0,0,0.26458333,17.289016,62.963663)" />
    <path
       style="fill:#9457b0;fill-opacity:1;stroke:#000000;stroke-width:4.80000006;stroke-opacity:1;stroke-miterlimit:4;stroke-dasharray:none"
       d="m 451.48985,555.35371 v -13.98982 h 13.98983 13.98982 v 13.98982 13.98983 h -13.98982 -13.98983 z"
       id="path23359"
       transform="matrix(0.26458333,0,0,0.26458333,17.289016,62.963663)" />
    <path
       style="fill:#9457b0;fill-opacity:1;stroke:#000000;stroke-width:4.80000006;stroke-opacity:1;stroke-miterlimit:4;stroke-dasharray:none"
       d="m 391.07924,315.19503 v -14.41376 h 14.20179 14.20179 v 14.41376 14.41376 h -14.20179 -14.20179 z"
       id="path24114"
       transform="matrix(0.26458333,0,0,0.26458333,17.289016,62.963663)" />
    <path
       style="fill:#9457b0;fill-opacity:1;stroke:#000000;stroke-width:4.80000006;stroke-opacity:1;stroke-miterlimit:4;stroke-dasharray:none"
       d="m 360.97991,345.29435 v -14.41376 h 14.2018 14.20179 v 14.41376 14.41376 h -14.20179 -14.2018 z"
       id="path24153"
       transform="matrix(0.26458333,0,0,0.26458333,17.289016,62.963663)" />
    <path
       style="fill:#9457b0;fill-opacity:1;stroke:#000000;stroke-width:4.80000006;stroke-opacity:1;stroke-miterlimit:4;stroke-dasharray:none"
       d="m 330.88059,375.18171 v -14.2018 h 14.41376 14.41376 v 14.2018 14.20179 h -14.41376 -14.41376 z"
       id="path24192"
       transform="matrix(0.26458333,0,0,0.26458333,17.289016,62.963663)" />
    <path
       style="fill:#9457b0;fill-opacity:1;stroke:#000000;stroke-width:4.80000006;stroke-opacity:1;stroke-miterlimit:4;stroke-dasharray:none"
       d="m 330.88059,405.28103 v -14.20179 h 14.41376 14.41376 v 14.20179 14.20179 h -14.41376 -14.41376 z"
       id="path24231"
       transform="matrix(0.26458333,0,0,0.26458333,17.289016,62.963663)" />
    <path
       style="fill:#9457b0;fill-opacity:1;stroke:#000000;stroke-width:4.80000006;stroke-opacity:1;stroke-miterlimit:4;stroke-dasharray:none"
       d="m 330.88059,435.16839 v -14.41376 h 14.41376 14.41376 v 14.41376 14.41376 h -14.41376 -14.41376 z"
       id="path24270"
       transform="matrix(0.26458333,0,0,0.26458333,17.289016,62.963663)" />
    <path
       style="fill:#9457b0;fill-opacity:1;stroke:#000000;stroke-width:4.80000006;stroke-opacity:1;stroke-miterlimit:4;stroke-dasharray:none"
       d="m 330.88059,465.26771 v -14.41376 h 14.41376 14.41376 v 14.41376 14.41376 h -14.41376 -14.41376 z"
       id="path24309"
       transform="matrix(0.26458333,0,0,0.26458333,17.289016,62.963663)" />
    <path
       style="fill:#9457b0;fill-opacity:1;stroke:#000000;stroke-width:4.80000006;stroke-opacity:1;stroke-miterlimit:4;stroke-dasharray:none"
       d="m 330.88059,495.15507 v -14.2018 h 14.41376 14.41376 v 14.2018 14.20179 h -14.41376 -14.41376 z"
       id="path24348"
       transform="matrix(0.26458333,0,0,0.26458333,17.289016,62.963663)" />
    <path
       style="fill:#9457b0;fill-opacity:1;stroke:#000000;stroke-width:4.80000006;stroke-opacity:1;stroke-miterlimit:4;stroke-dasharray:none"
       d="m 300.78127,435.16839 v -14.41376 h 14.41376 14.41376 v 14.41376 14.41376 h -14.41376 -14.41376 z"
       id="path24387"
       transform="matrix(0.26458333,0,0,0.26458333,17.289016,62.963663)" />
    <path
       style="fill:#9457b0;fill-opacity:1;stroke:#000000;stroke-width:4.80000006;stroke-opacity:1;stroke-miterlimit:4;stroke-dasharray:none"
       d="M 360.97991,525.25439 V 511.0526 h 14.2018 14.20179 v 14.20179 14.20179 h -14.20179 -14.2018 z"
       id="path25343"
       transform="matrix(0.26458333,0,0,0.26458333,17.289016,62.963663)" />
    <path
       style="fill:#9457b0;fill-opacity:1;stroke:#000000;stroke-width:4.80000006;stroke-opacity:1;stroke-miterlimit:4;stroke-dasharray:none"
       d="m 420.75463,555.35371 v -14.20179 h 14.41376 14.41376 v 14.20179 14.2018 h -14.41376 -14.41376 z"
       id="path25382"
       transform="matrix(0.26458333,0,0,0.26458333,17.289016,62.963663)" />
    <path
       style="fill:#9457b0;fill-opacity:1;stroke:#000000;stroke-width:4.80000006;stroke-opacity:1;stroke-miterlimit:4;stroke-dasharray:none"
       d="m 420.75463,315.19503 v -14.41376 h 14.41376 14.41376 v 14.41376 14.41376 h -14.41376 -14.41376 z"
       id="path27149"
       transform="matrix(0.26458333,0,0,0.26458333,17.289016,62.963663)" />
    <path
       style="fill:#9457b0;fill-opacity:1;stroke:#000000;stroke-width:4.80000006;stroke-opacity:1;stroke-miterlimit:4;stroke-dasharray:none"
       d="m 450.85395,285.30767 v -14.20179 h 14.41376 14.41376 v 14.20179 14.20179 h -14.41376 -14.41376 z"
       id="path27188"
       transform="matrix(0.26458333,0,0,0.26458333,17.289016,62.963663)" />
    <path
       style="fill:#9457b0;fill-opacity:1;stroke:#000000;stroke-width:1.27;stroke-opacity:1;stroke-miterlimit:4;stroke-dasharray:none"
       d="m 176.30861,178.04588 v -3.70147 h 3.70147 3.70148 v 3.70147 3.70148 h -3.70148 -3.70147 z"
       id="path27389" />
    <path
       style="fill:#389723;fill-opacity:1;stroke:#000000;stroke-width:4.80000006;stroke-opacity:1;stroke-miterlimit:4;stroke-dasharray:none"
       d="m 300.78127,285.30767 v -14.20179 h 14.41376 14.41376 v 14.20179 14.20179 h -14.41376 -14.41376 z"
       id="path30504"
       transform="matrix(0.26458333,0,0,0.26458333,17.289016,62.963663)" />
    <path
       style="fill:#389723;fill-opacity:1;stroke:#000000;stroke-width:4.80000006;stroke-opacity:1;stroke-miterlimit:4;stroke-dasharray:none"
       d="m 330.88059,285.30767 v -14.20179 h 14.41376 14.41376 v 14.20179 14.20179 h -14.41376 -14.41376 z"
       id="path30543"
       transform="matrix(0.26458333,0,0,0.26458333,17.289016,62.963663)" />
    <path
       style="fill:#389723;fill-opacity:1;stroke:#000000;stroke-width:4.80000006;stroke-opacity:1;stroke-miterlimit:4;stroke-dasharray:none"
       d="m 391.07924,255.20835 v -14.2018 h 14.20179 14.20179 v 14.2018 14.20179 h -14.20179 -14.20179 z"
       id="path30582"
       transform="matrix(0.26458333,0,0,0.26458333,17.289016,62.963663)" />
    <path
       style="fill:#389723;fill-opacity:1;stroke:#000000;stroke-width:4.80000006;stroke-opacity:1;stroke-miterlimit:4;stroke-dasharray:none"
       d="m 420.75463,225.32099 v -14.41376 h 14.41376 14.41376 v 14.41376 14.41376 h -14.41376 -14.41376 z"
       id="path30621"
       transform="matrix(0.26458333,0,0,0.26458333,17.289016,62.963663)" />
    <path
       style="fill:#389723;fill-opacity:1;stroke:#000000;stroke-width:4.80000006;stroke-opacity:1;stroke-miterlimit:4;stroke-dasharray:none"
       d="m 420.75463,195.22167 v -14.41376 h 14.41376 14.41376 v 14.41376 14.41376 h -14.41376 -14.41376 z"
       id="path30660"
       transform="matrix(0.26458333,0,0,0.26458333,17.289016,62.963663)" />
    <path
       style="fill:#389723;fill-opacity:1;stroke:#000000;stroke-width:4.80000006;stroke-opacity:1;stroke-miterlimit:4;stroke-dasharray:none"
       d="m 450.85395,165.33431 v -14.20179 h 14.41376 14.41376 v 14.20179 14.20179 h -14.41376 -14.41376 z"
       id="path30699"
       transform="matrix(0.26458333,0,0,0.26458333,17.289016,62.963663)" />
    <path
       style="fill:#389723;fill-opacity:1;stroke:#000000;stroke-width:4.80000006;stroke-opacity:1;stroke-miterlimit:4;stroke-dasharray:none"
       d="m 450.85395,135.23499 v -14.2018 h 14.41376 14.41376 v 14.2018 14.20179 h -14.41376 -14.41376 z"
       id="path30738"
       transform="matrix(0.26458333,0,0,0.26458333,17.289016,62.963663)" />
    <path
       style="fill:#389723;fill-opacity:1;stroke:#000000;stroke-width:4.80000006;stroke-opacity:1;stroke-miterlimit:4;stroke-dasharray:none"
       d="M 450.85395,105.13566 V 90.933871 h 14.41376 14.41376 v 14.201789 14.2018 h -14.41376 -14.41376 z"
       id="path30777"
       transform="matrix(0.26458333,0,0,0.26458333,17.289016,62.963663)" />
    <path
       style="fill:#389723;fill-opacity:1;stroke:#000000;stroke-width:4.80000006;stroke-opacity:1;stroke-miterlimit:4;stroke-dasharray:none"
       d="m 420.75463,75.248308 v -14.41376 h 14.41376 14.41376 v 14.41376 14.413761 h -14.41376 -14.41376 z"
       id="path30816"
       transform="matrix(0.26458333,0,0,0.26458333,17.289016,62.963663)" />
    <path
       style="fill:#389723;fill-opacity:1;stroke:#000000;stroke-width:4.80000006;stroke-opacity:1;stroke-miterlimit:4;stroke-dasharray:none"
       d="M 391.07924,45.360952 V 31.159159 h 14.20179 14.20179 v 14.201793 14.201794 h -14.20179 -14.20179 z"
       id="path30855"
       transform="matrix(0.26458333,0,0,0.26458333,17.289016,62.963663)" />
    <path
       style="fill:#389723;fill-opacity:1;stroke:#000000;stroke-width:4.80000006;stroke-opacity:1;stroke-miterlimit:4;stroke-dasharray:none"
       d="M 360.97991,15.261629 V 1.0598353 h 14.2018 14.20179 V 15.261629 29.463422 h -14.20179 -14.2018 z"
       id="path30894"
       transform="matrix(0.26458333,0,0,0.26458333,17.289016,62.963663)" />
    <path
       style="fill:#389723;fill-opacity:1;stroke:#000000;stroke-width:4.80000006;stroke-opacity:1;stroke-miterlimit:4;stroke-dasharray:none"
       d="M 330.88059,15.261629 V 1.0598353 h 14.41376 14.41376 V 15.261629 29.463422 h -14.41376 -14.41376 z"
       id="path30933"
       transform="matrix(0.26458333,0,0,0.26458333,17.289016,62.963663)" />
    <path
       style="fill:#389723;fill-opacity:1;stroke:#000000;stroke-width:4.80000006;stroke-opacity:1;stroke-miterlimit:4;stroke-dasharray:none"
       d="M 271.10588,15.261629 V 1.0598353 h 14.20179 14.20179 V 15.261629 29.463422 h -14.20179 -14.20179 z"
       id="path30972"
       transform="matrix(0.26458333,0,0,0.26458333,17.289016,62.963663)" />
    <path
       style="fill:#389723;fill-opacity:1;stroke:#000000;stroke-width:4.80000006;stroke-opacity:1;stroke-miterlimit:4;stroke-dasharray:none"
       d="m 480.95327,135.23499 v -14.2018 h 14.2018 14.20179 v 14.2018 14.20179 h -14.20179 -14.2018 z"
       id="path31011"
       transform="matrix(0.26458333,0,0,0.26458333,17.289016,62.963663)" />
    <path
       style="fill:#389723;fill-opacity:1;stroke:#000000;stroke-width:4.80000006;stroke-opacity:1;stroke-miterlimit:4;stroke-dasharray:none"
       d="M 210.88587,45.264772 V 31.025853 h 14.3888 14.38881 V 45.264772 59.50369 h -14.38881 -14.3888 z"
       id="path31327"
       transform="matrix(0.26458333,0,0,0.26458333,17.289016,62.963663)" />
    <path
       style="fill:#389723;fill-opacity:1;stroke:#000000;stroke-width:4.80000006;stroke-opacity:1;stroke-miterlimit:4;stroke-dasharray:none"
       d="M 180.9092,75.241442 V 61.002523 h 14.3888 14.38881 V 75.241442 89.48036 H 195.298 180.9092 Z"
       id="path31840"
       transform="matrix(0.26458333,0,0,0.26458333,17.289016,62.963663)" />
    <path
       style="fill:#389723;fill-opacity:1;stroke:#000000;stroke-width:4.80000006;stroke-opacity:1;stroke-miterlimit:4;stroke-dasharray:none"
       d="m 150.93253,135.34466 v -14.3888 h 14.3888 14.38881 v 14.3888 14.38881 h -14.38881 -14.3888 z"
       id="path32396"
       transform="matrix(0.26458333,0,0,0.26458333,17.289016,62.963663)" />
    <path
       style="fill:#389723;fill-opacity:1;stroke:#000000;stroke-width:4.80000006;stroke-opacity:1;stroke-miterlimit:4;stroke-dasharray:none"
       d="m 210.88587,255.25134 v -14.3888 h 14.3888 14.38881 v 14.3888 14.38881 h -14.38881 -14.3888 z"
       id="path32632"
       transform="matrix(0.26458333,0,0,0.26458333,17.289016,62.963663)" />
    <path
       style="fill:#ca3a33;fill-opacity:1;stroke:#000000;stroke-width:4.80000006;stroke-opacity:1;stroke-miterlimit:4;stroke-dasharray:none"
       d="m 120.92721,285.20169 v -14.41376 h 14.30778 14.30778 v 14.41376 14.41376 h -14.30778 -14.30778 z"
       id="path34871"
       transform="matrix(0.26458333,0,0,0.26458333,17.289016,62.963663)" />
    <path
       style="fill:#ca3a33;fill-opacity:1;stroke:#000000;stroke-width:4.80000006;stroke-opacity:1;stroke-miterlimit:4;stroke-dasharray:none"
       d="m 180.91389,315.30101 v -14.41376 h 14.41376 14.41376 v 14.41376 14.41376 h -14.41376 -14.41376 z"
       id="path35107"
       transform="matrix(0.26458333,0,0,0.26458333,17.289016,62.963663)" />
    <path
       style="fill:#ca3a33;fill-opacity:1;stroke:#000000;stroke-width:4.80000006;stroke-opacity:1;stroke-miterlimit:4;stroke-dasharray:none"
       d="m 241.21852,525.25439 v -14.41376 h 13.98983 13.98982 v 14.41376 14.41376 h -13.98982 -13.98983 z"
       id="path37296"
       transform="matrix(0.26458333,0,0,0.26458333,17.289016,62.963663)" />
    <path
       style="fill:#ca3a33;fill-opacity:1;stroke:#000000;stroke-width:4.80000006;stroke-opacity:1;stroke-miterlimit:4;stroke-dasharray:none"
       d="m 270.89391,465.47968 v -13.98983 h 14.41376 14.41376 v 13.98983 13.98982 h -14.41376 -14.41376 z"
       id="path37335"
       transform="matrix(0.26458333,0,0,0.26458333,17.289016,62.963663)" />
  </g>
</svg>
